<mxfile host="app.diagrams.net" modified="2023-04-15T15:15:24.979Z" agent="Mozilla/5.0 (Windows NT 10.0; Win64; x64; rv:109.0) Gecko/20100101 Firefox/112.0" etag="y-BrZdCXYlgQO_gqaO6r" version="21.1.8" type="github">
  <diagram name="Page-1" id="Z3JqWZdpXUrIyYLNGxdz">
    <mxGraphModel dx="1687" dy="887" grid="1" gridSize="10" guides="1" tooltips="1" connect="1" arrows="1" fold="1" page="1" pageScale="1" pageWidth="1169" pageHeight="827" math="0" shadow="0">
      <root>
        <mxCell id="0" />
        <mxCell id="1" parent="0" />
        <mxCell id="evNOpBfgzT6DtgjLOFPo-1" value="" style="rounded=0;whiteSpace=wrap;html=1;fillColor=#f5f5f5;fontColor=#333333;strokeColor=#666666;" vertex="1" parent="1">
          <mxGeometry x="10" width="1150" height="90" as="geometry" />
        </mxCell>
        <mxCell id="evNOpBfgzT6DtgjLOFPo-2" value="FOOTER" style="rounded=0;whiteSpace=wrap;html=1;resizeWidth=0;" vertex="1" parent="1">
          <mxGeometry x="10" y="767" width="1150" height="60" as="geometry" />
        </mxCell>
        <mxCell id="evNOpBfgzT6DtgjLOFPo-3" value="Filtrer affichages" style="shape=partialRectangle;whiteSpace=wrap;html=1;bottom=0;top=0;fillColor=none;" vertex="1" parent="1">
          <mxGeometry x="250" y="20" width="130" height="50" as="geometry" />
        </mxCell>
        <mxCell id="evNOpBfgzT6DtgjLOFPo-4" value="Formulaires" style="shape=partialRectangle;whiteSpace=wrap;html=1;bottom=0;top=0;fillColor=none;" vertex="1" parent="1">
          <mxGeometry x="380" y="20" width="130" height="50" as="geometry" />
        </mxCell>
        <mxCell id="evNOpBfgzT6DtgjLOFPo-5" value="Modifications" style="shape=partialRectangle;whiteSpace=wrap;html=1;bottom=0;top=0;fillColor=none;" vertex="1" parent="1">
          <mxGeometry x="510" y="20" width="130" height="50" as="geometry" />
        </mxCell>
        <mxCell id="evNOpBfgzT6DtgjLOFPo-6" value="&lt;p style=&quot;line-height: 120%;&quot;&gt;Accueil&lt;/p&gt;" style="shape=partialRectangle;whiteSpace=wrap;html=1;bottom=0;top=0;fillColor=none;" vertex="1" parent="1">
          <mxGeometry x="115" y="20" width="135" height="50" as="geometry" />
        </mxCell>
        <mxCell id="evNOpBfgzT6DtgjLOFPo-7" value="" style="triangle;whiteSpace=wrap;html=1;rotation=90;" vertex="1" parent="1">
          <mxGeometry x="360" y="50" width="10" height="20" as="geometry" />
        </mxCell>
        <mxCell id="evNOpBfgzT6DtgjLOFPo-8" value="" style="triangle;whiteSpace=wrap;html=1;rotation=90;" vertex="1" parent="1">
          <mxGeometry x="490" y="50" width="10" height="20" as="geometry" />
        </mxCell>
        <mxCell id="evNOpBfgzT6DtgjLOFPo-10" value="" style="rounded=0;whiteSpace=wrap;html=1;" vertex="1" parent="1">
          <mxGeometry x="305" y="120" width="560" height="240" as="geometry" />
        </mxCell>
        <mxCell id="evNOpBfgzT6DtgjLOFPo-12" value="AFFICHE DU FILM" style="rounded=0;whiteSpace=wrap;html=1;" vertex="1" parent="1">
          <mxGeometry x="330" y="140" width="120" height="180" as="geometry" />
        </mxCell>
        <mxCell id="evNOpBfgzT6DtgjLOFPo-14" value="&lt;font style=&quot;font-size: 32px;&quot;&gt;Titre du film&lt;/font&gt;" style="text;html=1;strokeColor=none;fillColor=none;align=center;verticalAlign=middle;whiteSpace=wrap;rounded=0;" vertex="1" parent="1">
          <mxGeometry x="480" y="140" width="350" height="50" as="geometry" />
        </mxCell>
        <mxCell id="evNOpBfgzT6DtgjLOFPo-15" value="&lt;div align=&quot;center&quot;&gt;Date de sortie : 01-01-2000&lt;br&gt;&lt;/div&gt;&lt;div align=&quot;center&quot;&gt;Genre : Genre5&lt;br&gt;&lt;/div&gt;&lt;div align=&quot;center&quot;&gt;Durée : 1h50&lt;/div&gt;&lt;div align=&quot;center&quot;&gt;Réalisé par : Nom, Prénom Réal&lt;/div&gt;&lt;div align=&quot;center&quot;&gt;Note : 3.5 / 5&lt;br&gt;&lt;/div&gt;" style="rounded=0;whiteSpace=wrap;html=1;align=center;" vertex="1" parent="1">
          <mxGeometry x="490" y="190" width="340" height="130" as="geometry" />
        </mxCell>
        <mxCell id="evNOpBfgzT6DtgjLOFPo-16" value="&lt;font style=&quot;font-size: 26px;&quot;&gt;Casting &lt;br&gt;&lt;/font&gt;" style="text;html=1;strokeColor=none;fillColor=none;align=center;verticalAlign=middle;whiteSpace=wrap;rounded=0;" vertex="1" parent="1">
          <mxGeometry x="410" y="364" width="350" height="50" as="geometry" />
        </mxCell>
        <mxCell id="evNOpBfgzT6DtgjLOFPo-43" value="" style="shape=table;startSize=0;container=1;collapsible=0;childLayout=tableLayout;fontSize=16;columnLines=0;rowLines=1;" vertex="1" parent="1">
          <mxGeometry x="305" y="420" width="560" height="256" as="geometry" />
        </mxCell>
        <mxCell id="evNOpBfgzT6DtgjLOFPo-44" value="" style="shape=tableRow;horizontal=0;startSize=0;swimlaneHead=0;swimlaneBody=0;strokeColor=inherit;top=0;left=0;bottom=0;right=0;collapsible=0;dropTarget=0;fillColor=none;points=[[0,0.5],[1,0.5]];portConstraint=eastwest;fontSize=16;" vertex="1" parent="evNOpBfgzT6DtgjLOFPo-43">
          <mxGeometry width="560" height="30" as="geometry" />
        </mxCell>
        <mxCell id="evNOpBfgzT6DtgjLOFPo-45" value="&lt;font style=&quot;font-size: 20px;&quot;&gt;Acteur&lt;/font&gt;" style="shape=partialRectangle;html=1;whiteSpace=wrap;connectable=0;strokeColor=inherit;overflow=hidden;fillColor=none;top=0;left=0;bottom=0;right=0;pointerEvents=1;fontSize=16;strokeWidth=0;" vertex="1" parent="evNOpBfgzT6DtgjLOFPo-44">
          <mxGeometry width="275" height="30" as="geometry">
            <mxRectangle width="275" height="30" as="alternateBounds" />
          </mxGeometry>
        </mxCell>
        <mxCell id="evNOpBfgzT6DtgjLOFPo-47" value="&lt;font style=&quot;font-size: 20px;&quot;&gt;Rôle&lt;/font&gt;" style="shape=partialRectangle;html=1;whiteSpace=wrap;connectable=0;strokeColor=inherit;overflow=hidden;fillColor=none;top=0;left=0;bottom=0;right=0;pointerEvents=1;fontSize=16;" vertex="1" parent="evNOpBfgzT6DtgjLOFPo-44">
          <mxGeometry x="275" width="285" height="30" as="geometry">
            <mxRectangle width="285" height="30" as="alternateBounds" />
          </mxGeometry>
        </mxCell>
        <mxCell id="evNOpBfgzT6DtgjLOFPo-49" value="" style="shape=tableRow;horizontal=0;startSize=0;swimlaneHead=0;swimlaneBody=0;strokeColor=inherit;top=0;left=0;bottom=0;right=0;collapsible=0;dropTarget=0;fillColor=none;points=[[0,0.5],[1,0.5]];portConstraint=eastwest;fontSize=16;" vertex="1" parent="evNOpBfgzT6DtgjLOFPo-43">
          <mxGeometry y="30" width="560" height="34" as="geometry" />
        </mxCell>
        <mxCell id="evNOpBfgzT6DtgjLOFPo-50" value="&lt;font style=&quot;font-size: 16px;&quot;&gt;Nom, prénom&lt;/font&gt;" style="shape=partialRectangle;html=1;whiteSpace=wrap;connectable=0;overflow=hidden;top=0;left=0;bottom=0;right=0;pointerEvents=1;fontSize=16;strokeWidth=0;fillColor=none;strokeColor=inherit;" vertex="1" parent="evNOpBfgzT6DtgjLOFPo-49">
          <mxGeometry width="275" height="34" as="geometry">
            <mxRectangle width="275" height="34" as="alternateBounds" />
          </mxGeometry>
        </mxCell>
        <mxCell id="evNOpBfgzT6DtgjLOFPo-52" value="&lt;font color=&quot;#707070&quot;&gt;Nom du rôle&lt;/font&gt;" style="shape=partialRectangle;html=1;whiteSpace=wrap;connectable=0;strokeColor=inherit;overflow=hidden;fillColor=none;top=0;left=0;bottom=0;right=0;pointerEvents=1;fontSize=16;" vertex="1" parent="evNOpBfgzT6DtgjLOFPo-49">
          <mxGeometry x="275" width="285" height="34" as="geometry">
            <mxRectangle width="285" height="34" as="alternateBounds" />
          </mxGeometry>
        </mxCell>
        <mxCell id="evNOpBfgzT6DtgjLOFPo-54" value="" style="shape=tableRow;horizontal=0;startSize=0;swimlaneHead=0;swimlaneBody=0;strokeColor=inherit;top=0;left=0;bottom=0;right=0;collapsible=0;dropTarget=0;fillColor=none;points=[[0,0.5],[1,0.5]];portConstraint=eastwest;fontSize=16;" vertex="1" parent="evNOpBfgzT6DtgjLOFPo-43">
          <mxGeometry y="64" width="560" height="39" as="geometry" />
        </mxCell>
        <mxCell id="evNOpBfgzT6DtgjLOFPo-55" value="" style="shape=partialRectangle;html=1;whiteSpace=wrap;connectable=0;overflow=hidden;top=0;left=0;bottom=0;right=0;pointerEvents=1;fontSize=16;strokeWidth=0;fillColor=#f5f5f5;strokeColor=#666666;fontColor=#333333;" vertex="1" parent="evNOpBfgzT6DtgjLOFPo-54">
          <mxGeometry width="275" height="39" as="geometry">
            <mxRectangle width="275" height="39" as="alternateBounds" />
          </mxGeometry>
        </mxCell>
        <mxCell id="evNOpBfgzT6DtgjLOFPo-57" value="" style="shape=partialRectangle;html=1;whiteSpace=wrap;connectable=0;strokeColor=#666666;overflow=hidden;fillColor=#f5f5f5;top=0;left=0;bottom=0;right=0;pointerEvents=1;fontSize=16;fontColor=#333333;" vertex="1" parent="evNOpBfgzT6DtgjLOFPo-54">
          <mxGeometry x="275" width="285" height="39" as="geometry">
            <mxRectangle width="285" height="39" as="alternateBounds" />
          </mxGeometry>
        </mxCell>
        <mxCell id="evNOpBfgzT6DtgjLOFPo-59" style="shape=tableRow;horizontal=0;startSize=0;swimlaneHead=0;swimlaneBody=0;strokeColor=inherit;top=0;left=0;bottom=0;right=0;collapsible=0;dropTarget=0;fillColor=none;points=[[0,0.5],[1,0.5]];portConstraint=eastwest;fontSize=16;" vertex="1" parent="evNOpBfgzT6DtgjLOFPo-43">
          <mxGeometry y="103" width="560" height="38" as="geometry" />
        </mxCell>
        <mxCell id="evNOpBfgzT6DtgjLOFPo-60" style="shape=partialRectangle;html=1;whiteSpace=wrap;connectable=0;overflow=hidden;top=0;left=0;bottom=0;right=0;pointerEvents=1;fontSize=16;strokeWidth=0;fillColor=none;strokeColor=inherit;" vertex="1" parent="evNOpBfgzT6DtgjLOFPo-59">
          <mxGeometry width="275" height="38" as="geometry">
            <mxRectangle width="275" height="38" as="alternateBounds" />
          </mxGeometry>
        </mxCell>
        <mxCell id="evNOpBfgzT6DtgjLOFPo-62" style="shape=partialRectangle;html=1;whiteSpace=wrap;connectable=0;strokeColor=inherit;overflow=hidden;fillColor=none;top=0;left=0;bottom=0;right=0;pointerEvents=1;fontSize=16;" vertex="1" parent="evNOpBfgzT6DtgjLOFPo-59">
          <mxGeometry x="275" width="285" height="38" as="geometry">
            <mxRectangle width="285" height="38" as="alternateBounds" />
          </mxGeometry>
        </mxCell>
        <mxCell id="evNOpBfgzT6DtgjLOFPo-64" style="shape=tableRow;horizontal=0;startSize=0;swimlaneHead=0;swimlaneBody=0;strokeColor=inherit;top=0;left=0;bottom=0;right=0;collapsible=0;dropTarget=0;fillColor=none;points=[[0,0.5],[1,0.5]];portConstraint=eastwest;fontSize=16;" vertex="1" parent="evNOpBfgzT6DtgjLOFPo-43">
          <mxGeometry y="141" width="560" height="37" as="geometry" />
        </mxCell>
        <mxCell id="evNOpBfgzT6DtgjLOFPo-65" style="shape=partialRectangle;html=1;whiteSpace=wrap;connectable=0;overflow=hidden;top=0;left=0;bottom=0;right=0;pointerEvents=1;fontSize=16;strokeWidth=0;fillColor=#f5f5f5;strokeColor=#666666;fontColor=#333333;" vertex="1" parent="evNOpBfgzT6DtgjLOFPo-64">
          <mxGeometry width="275" height="37" as="geometry">
            <mxRectangle width="275" height="37" as="alternateBounds" />
          </mxGeometry>
        </mxCell>
        <mxCell id="evNOpBfgzT6DtgjLOFPo-67" style="shape=partialRectangle;html=1;whiteSpace=wrap;connectable=0;strokeColor=#666666;overflow=hidden;fillColor=#f5f5f5;top=0;left=0;bottom=0;right=0;pointerEvents=1;fontSize=16;fontColor=#333333;" vertex="1" parent="evNOpBfgzT6DtgjLOFPo-64">
          <mxGeometry x="275" width="285" height="37" as="geometry">
            <mxRectangle width="285" height="37" as="alternateBounds" />
          </mxGeometry>
        </mxCell>
        <mxCell id="evNOpBfgzT6DtgjLOFPo-69" style="shape=tableRow;horizontal=0;startSize=0;swimlaneHead=0;swimlaneBody=0;strokeColor=inherit;top=0;left=0;bottom=0;right=0;collapsible=0;dropTarget=0;fillColor=none;points=[[0,0.5],[1,0.5]];portConstraint=eastwest;fontSize=16;" vertex="1" parent="evNOpBfgzT6DtgjLOFPo-43">
          <mxGeometry y="178" width="560" height="39" as="geometry" />
        </mxCell>
        <mxCell id="evNOpBfgzT6DtgjLOFPo-70" style="shape=partialRectangle;html=1;whiteSpace=wrap;connectable=0;overflow=hidden;top=0;left=0;bottom=0;right=0;pointerEvents=1;fontSize=16;strokeWidth=0;fillColor=none;strokeColor=inherit;" vertex="1" parent="evNOpBfgzT6DtgjLOFPo-69">
          <mxGeometry width="275" height="39" as="geometry">
            <mxRectangle width="275" height="39" as="alternateBounds" />
          </mxGeometry>
        </mxCell>
        <mxCell id="evNOpBfgzT6DtgjLOFPo-72" style="shape=partialRectangle;html=1;whiteSpace=wrap;connectable=0;strokeColor=inherit;overflow=hidden;fillColor=none;top=0;left=0;bottom=0;right=0;pointerEvents=1;fontSize=16;" vertex="1" parent="evNOpBfgzT6DtgjLOFPo-69">
          <mxGeometry x="275" width="285" height="39" as="geometry">
            <mxRectangle width="285" height="39" as="alternateBounds" />
          </mxGeometry>
        </mxCell>
        <mxCell id="evNOpBfgzT6DtgjLOFPo-74" style="shape=tableRow;horizontal=0;startSize=0;swimlaneHead=0;swimlaneBody=0;strokeColor=#666666;top=0;left=0;bottom=0;right=0;collapsible=0;dropTarget=0;fillColor=#f5f5f5;points=[[0,0.5],[1,0.5]];portConstraint=eastwest;fontSize=16;fontColor=#333333;" vertex="1" parent="evNOpBfgzT6DtgjLOFPo-43">
          <mxGeometry y="217" width="560" height="39" as="geometry" />
        </mxCell>
        <mxCell id="evNOpBfgzT6DtgjLOFPo-75" style="shape=partialRectangle;html=1;whiteSpace=wrap;connectable=0;overflow=hidden;top=0;left=0;bottom=0;right=0;pointerEvents=1;fontSize=16;strokeWidth=0;fillColor=none;strokeColor=inherit;" vertex="1" parent="evNOpBfgzT6DtgjLOFPo-74">
          <mxGeometry width="275" height="39" as="geometry">
            <mxRectangle width="275" height="39" as="alternateBounds" />
          </mxGeometry>
        </mxCell>
        <mxCell id="evNOpBfgzT6DtgjLOFPo-77" style="shape=partialRectangle;html=1;whiteSpace=wrap;connectable=0;strokeColor=inherit;overflow=hidden;fillColor=none;top=0;left=0;bottom=0;right=0;pointerEvents=1;fontSize=16;" vertex="1" parent="evNOpBfgzT6DtgjLOFPo-74">
          <mxGeometry x="275" width="285" height="39" as="geometry">
            <mxRectangle width="285" height="39" as="alternateBounds" />
          </mxGeometry>
        </mxCell>
      </root>
    </mxGraphModel>
  </diagram>
</mxfile>
